<svg id="Camada_1" data-name="Camada 1" xmlns="http://www.w3.org/2000/svg" xmlns:xlink="http://www.w3.org/1999/xlink" viewBox="0 0 368.83 136.23"><defs><style>.cls-1{stroke:#000;stroke-miterlimit:10;stroke-width:0.25px;}.cls-2{fill:url(#Gradiente_sem_nome_42);}.cls-3{fill:url(#Gradiente_sem_nome_42-2);}.cls-4{fill:url(#Gradiente_sem_nome_42-3);}.cls-5{fill:url(#Gradiente_sem_nome_42-4);}</style><linearGradient id="Gradiente_sem_nome_42" x1="155.99" y1="287.74" x2="155.99" y2="172.26" gradientUnits="userSpaceOnUse"><stop offset="0"/><stop offset="1" stop-color="#b0b0b0"/></linearGradient><linearGradient id="Gradiente_sem_nome_42-2" x1="415.19" y1="287.74" x2="415.19" y2="172.26" xlink:href="#Gradiente_sem_nome_42"/><linearGradient id="Gradiente_sem_nome_42-3" x1="475.16" y1="287.74" x2="475.16" y2="172.26" xlink:href="#Gradiente_sem_nome_42"/><linearGradient id="Gradiente_sem_nome_42-4" x1="283.86" y1="288.02" x2="283.86" y2="173.33" xlink:href="#Gradiente_sem_nome_42"/></defs><title>loopzcompany</title><path class="cls-1" d="M145.29,308.13h-.13a4.23,4.23,0,0,1-2.26-.64,4.89,4.89,0,0,1-1.65-1.73,4.57,4.57,0,0,1-.6-2.28A4.51,4.51,0,0,1,142,300.2a4.35,4.35,0,0,1,3.23-1.38,4.66,4.66,0,0,1,2.38.67v.45a4.11,4.11,0,0,0-2.38-.77,4,4,0,0,0-3,1.27,4.36,4.36,0,0,0,0,6.07,4,4,0,0,0,3,1.28,4.11,4.11,0,0,0,2.38-.77v.44A4.26,4.26,0,0,1,145.29,308.13Z" transform="translate(-135.58 -172.26)"/><path class="cls-1" d="M200.67,306.75a4.61,4.61,0,0,1-1.34-3.28,4.49,4.49,0,0,1,1.35-3.25,4.52,4.52,0,0,1,6.47,0,4.53,4.53,0,0,1,1.34,3.26,4.6,4.6,0,0,1-1.33,3.29,4.22,4.22,0,0,1-3.17,1.4h-.17A4.17,4.17,0,0,1,200.67,306.75Zm7.43-3.25a4.24,4.24,0,0,0-1.22-3,4.1,4.1,0,0,0-5.93,0,4.37,4.37,0,0,0,0,6.08,4.08,4.08,0,0,0,5.92,0A4.22,4.22,0,0,0,208.1,303.5Z" transform="translate(-135.58 -172.26)"/><path class="cls-1" d="M269.42,299v9H269v-8.53l-4.16,8.7-4.13-8.7V308h-.35v-9H261l4,8.31,4-8.31Z" transform="translate(-135.58 -172.26)"/><path class="cls-1" d="M321.66,299H322a2.83,2.83,0,0,1,2.08.86,2.78,2.78,0,0,1,.86,2,2.68,2.68,0,0,1-.89,2,2.78,2.78,0,0,1-1.95.84H322V308h-.38Zm.38,5.39h.1a2.37,2.37,0,0,0,1.72-.74,2.49,2.49,0,0,0,0-3.54,2.29,2.29,0,0,0-1.7-.76H322Z" transform="translate(-135.58 -172.26)"/><path class="cls-1" d="M379.12,298.79l4.4,9.21h-.41l-1.67-3.43h-4.7L375.09,308h-.36Zm0,.82-2.19,4.61h4.41Z" transform="translate(-135.58 -172.26)"/><path class="cls-1" d="M441.73,299h.34v9.13L435.58,300v8h-.34v-9.13l6.49,8.14Z" transform="translate(-135.58 -172.26)"/><path class="cls-1" d="M496.73,308h-.38v-3.6l-2.68-5.4h.42l2.48,5,2.43-5h.35l-2.62,5.4Z" transform="translate(-135.58 -172.26)"/><path class="cls-2" d="M140.67,172.26v111h35.72v4.47H135.58V172.26Z" transform="translate(-135.58 -172.26)"/><path class="cls-3" d="M393.41,172.26h5.08a37.52,37.52,0,0,1,27.25,11q11.24,11,11.24,25.94t-11.63,25.72q-11.62,10.77-25.63,10.77h-1.23v42h-5.08Zm5.08,69.13h1.23a32.74,32.74,0,0,0,32.18-32.18q0-13.08-9.78-22.78t-22.4-9.7h-1.23Z" transform="translate(-135.58 -172.26)"/><path class="cls-4" d="M504,283.27v4.47h-58l50.81-111H445.91v-4.47h58.51l-51,111Z" transform="translate(-135.58 -172.26)"/><path class="cls-5" d="M325.84,173.33a57.24,57.24,0,0,0-42.07,18.39,57.29,57.29,0,0,0-84,.19q-1,1-1.86,2.1-1.38,1.63-2.62,3.37c-.56.77-1.11,1.57-1.63,2.37-.8,1.24-1.56,2.51-2.26,3.82-.5.9-1,1.81-1.4,2.73-.71,1.47-1.34,3-1.92,4.51-.42,1.12-.81,2.26-1.15,3.42a55.29,55.29,0,0,0-1.56,6.46,57.33,57.33,0,0,0,98.53,48.93h0a57.27,57.27,0,0,0,84-.17c.64-.69,1.26-1.39,1.87-2.1.91-1.09,1.79-2.22,2.61-3.37.57-.78,1.11-1.57,1.63-2.37.8-1.24,1.56-2.52,2.27-3.82.49-.9.95-1.81,1.4-2.73.69-1.48,1.34-3,1.91-4.52.42-1.12.81-2.26,1.16-3.41a56.74,56.74,0,0,0,2.46-16.67A57.43,57.43,0,0,0,325.84,173.33Zm-43.76,94.2A54.49,54.49,0,0,1,188.84,218c.33-1.36.72-2.72,1.16-4,.55-1.71,1.2-3.37,1.91-5,.44-1,.9-2,1.39-2.92.7-1.36,1.46-2.7,2.27-4,.52-.83,1.07-1.65,1.63-2.45q1.25-1.77,2.62-3.43c.6-.73,1.22-1.44,1.86-2.14a54.51,54.51,0,0,1,80.23-.17c-.91,1.08-1.78,2.21-2.61,3.36a50.32,50.32,0,0,0-75,.16c-.64.72-1.26,1.46-1.86,2.21-.92,1.16-1.8,2.36-2.61,3.6-.58.86-1.12,1.73-1.64,2.64a48.12,48.12,0,0,0-2.26,4.41c-.5,1.11-1,2.25-1.39,3.41a48.72,48.72,0,0,0-1.91,6.58,50.11,50.11,0,0,0-1.14,10.67h0a50.36,50.36,0,0,0,87.95,33.3h0c.64-.72,1.25-1.45,1.85-2.2.93-1.16,1.81-2.37,2.61-3.6h0c.57-.86,1.12-1.73,1.63-2.62.83-1.44,1.58-2.9,2.27-4.41h0c.5-1.11,1-2.25,1.39-3.41a48.69,48.69,0,0,0,1.9-6.58h0a49.39,49.39,0,0,0,1.15-10.66h0v-.19a33.29,33.29,0,0,1,2.6-12.71v0a32.54,32.54,0,0,1,1.86-3.74h0a33.58,33.58,0,0,1,62.71,16.52,35,35,0,0,1-.67,6.68,34.38,34.38,0,0,1-1.93,6.23,31.2,31.2,0,0,1-1.87,3.75,33.56,33.56,0,0,1-58.17.13h0a55.13,55.13,0,0,0,1.56-6.45,29.27,29.27,0,1,0,0-20.4v0a29.4,29.4,0,0,0-1.84,10.18h0a54.82,54.82,0,0,1-1.54,12.9c-.34,1.37-.73,2.72-1.16,4h0q-.84,2.55-1.92,5c-.43,1-.9,2-1.39,2.92h0q-1.05,2-2.27,4c-.52.82-1.06,1.65-1.63,2.45-.82,1.18-1.7,2.32-2.61,3.43-.6.73-1.22,1.43-1.86,2.13Zm-40.2-73a36.39,36.39,0,0,0-32.16,19.39,36.06,36.06,0,0,0-4.23,16.72s0,0,0,0,0,0,0,0h0s0,0,0,0h0a0,0,0,0,0,0,0v.13a36.38,36.38,0,0,0,66.69,19.92h0c.66-1,1.29-2,1.86-3.11a36.33,36.33,0,0,0,2.61-6.3h0a34.54,34.54,0,0,0,1.18-5.09,38.24,38.24,0,0,0,.44-5.28.06.06,0,0,1,0-.06s0,0,0,0h0s0,0,0,0h0s0,0,0,0h0v-.14a47.31,47.31,0,0,1,1.89-13.28h0c.4-1.39.86-2.75,1.39-4.08a43.62,43.62,0,0,1,2.26-4.91c.51-1,1.05-1.9,1.63-2.82h0a42.76,42.76,0,0,1,2.62-3.76c.6-.79,1.21-1.55,1.85-2.29a47.48,47.48,0,0,1,81.62,44.22c-.4,1.39-.86,2.74-1.39,4.07a46.52,46.52,0,0,1-2.26,4.91c-.52,1-1.06,1.91-1.63,2.82q-1.23,2-2.62,3.78c-.6.78-1.21,1.54-1.85,2.28a47.54,47.54,0,0,1-71.73.17h0q1.21-1.86,2.27-3.81a43.33,43.33,0,0,0,67.16-.15c.65-.8,1.28-1.61,1.87-2.46a42.06,42.06,0,0,0,2.61-4.2c.59-1.08,1.13-2.18,1.63-3.31a43.27,43.27,0,0,0,3.64-17.23v-.13h0a43.37,43.37,0,0,0-77-27.15q-1,1.2-1.86,2.46a42.06,42.06,0,0,0-2.61,4.2h0c-.58,1.08-1.12,2.19-1.62,3.32h0a43.15,43.15,0,0,0-3.64,17.23v.12h0v.21A40.19,40.19,0,0,1,280.21,244a39.3,39.3,0,0,1-1.62,4h0a39,39,0,0,1-2.61,4.69q-.87,1.37-1.86,2.64a40.5,40.5,0,0,1-70.57-37.71,37.16,37.16,0,0,1,1.63-4,39.59,39.59,0,0,1,2.61-4.69c.59-.91,1.21-1.79,1.86-2.65a40.54,40.54,0,0,1,64.36-.13q-1,2.2-1.91,4.51A36.38,36.38,0,0,0,241.88,194.5Zm0-7a43.34,43.34,0,0,0-33.64,16c-.66.8-1.27,1.62-1.86,2.47a42.15,42.15,0,0,0-2.62,4.2c-.59,1.08-1.13,2.18-1.63,3.31a42.3,42.3,0,0,0-2.26,6.53,43.32,43.32,0,0,0-1.38,10.69v.14a43.36,43.36,0,0,0,77,27.15h0c.66-.8,1.27-1.61,1.86-2.46a42.85,42.85,0,0,0,2.62-4.2c.59-1.07,1.13-2.18,1.62-3.3h0a43.15,43.15,0,0,0,3.64-17.12v-.24a40.28,40.28,0,0,1,2.24-13.28h0a39.3,39.3,0,0,1,1.62-4h0a40.19,40.19,0,0,1,2.6-4.68h0c.58-.9,1.21-1.79,1.86-2.63a40.57,40.57,0,0,1,72.82,24.42h0a40.07,40.07,0,0,1-2.25,13.28,38.2,38.2,0,0,1-1.63,4,39.75,39.75,0,0,1-2.61,4.69c-.58.91-1.21,1.79-1.86,2.64a40.55,40.55,0,0,1-64.36.14h0q1-2.21,1.91-4.51a36.42,36.42,0,0,0,65-9.54h0a35.87,35.87,0,0,0,1.61-10.42s0,0,0,0,0,0,0,0,0,0,0,0a0,0,0,0,1,0,0s0,0,0,0,0,0,0,0v-.14h0a36.38,36.38,0,0,0-66.69-19.91h0a33.61,33.61,0,0,0-1.86,3.11,35.68,35.68,0,0,0-2.61,6.28v0h0a36.07,36.07,0,0,0-1.61,10.4v0h0v0h0v.14h0a1.69,1.69,0,0,0,0,.23,47.64,47.64,0,0,1-1.89,13.05h0c-.4,1.39-.87,2.73-1.4,4.06a47.63,47.63,0,0,1-2.26,4.92c-.51,1-1.06,1.9-1.63,2.81h0q-1.21,2-2.61,3.77h0c-.59.78-1.21,1.54-1.85,2.28a47.57,47.57,0,0,1-83.52-30.94h0a47.41,47.41,0,0,1,1.89-13.28c.4-1.38.86-2.74,1.39-4.07a45.37,45.37,0,0,1,2.27-4.9c.51-1,1.05-1.91,1.62-2.83q1.23-2,2.62-3.78.9-1.16,1.86-2.28a47.54,47.54,0,0,1,71.72-.16h0q-1.21,1.86-2.27,3.81A43.3,43.3,0,0,0,241.88,187.5Zm57.37,43.14a26.59,26.59,0,1,1,26.59,26.41A26.62,26.62,0,0,1,299.25,230.64Zm79.64,12.73c-.34,1.37-.73,2.72-1.16,4q-.84,2.55-1.92,5c-.43,1-.9,2-1.4,2.91-.69,1.37-1.45,2.7-2.26,4-.52.84-1.06,1.66-1.63,2.45-.82,1.19-1.7,2.33-2.62,3.43-.6.74-1.22,1.44-1.86,2.14a54.5,54.5,0,0,1-80.23.18h0c.92-1.09,1.79-2.2,2.61-3.36a50.3,50.3,0,0,0,75-.16c.64-.72,1.26-1.45,1.86-2.2.92-1.16,1.8-2.36,2.61-3.61.57-.85,1.12-1.73,1.64-2.63.82-1.43,1.58-2.9,2.26-4.41.5-1.12,1-2.26,1.4-3.42a50.67,50.67,0,0,0,3.05-17.25h0a50.35,50.35,0,0,0-88-33.29c-.64.71-1.27,1.45-1.86,2.2q-1.4,1.74-2.62,3.6c-.57.86-1.11,1.73-1.63,2.63-.82,1.43-1.58,2.91-2.26,4.41-.5,1.12-1,2.26-1.4,3.42a49.6,49.6,0,0,0-1.9,6.57v0a49.88,49.88,0,0,0-1.14,10.66h0a1.09,1.09,0,0,0,0,.18,33.77,33.77,0,0,1-2.6,12.73h0a34.33,34.33,0,0,1-1.85,3.75,0,0,0,0,0,0,0,33.58,33.58,0,0,1-62.71-16.52h0a33.58,33.58,0,0,1,62.64-16.78,55.27,55.27,0,0,0-1.55,6.46h0a29.28,29.28,0,1,0,0,20.38h0a28.74,28.74,0,0,0,1.85-10.19,55,55,0,0,1,1.54-12.91h0c.34-1.36.72-2.72,1.16-4h0a52.49,52.49,0,0,1,1.92-5c.43-1,.9-2,1.39-2.92.7-1.36,1.46-2.69,2.26-4,.53-.83,1.07-1.65,1.63-2.45h0c.84-1.18,1.71-2.31,2.63-3.42.6-.73,1.21-1.44,1.85-2.14h0a54.55,54.55,0,0,1,94.77,36.64h0A54.89,54.89,0,0,1,378.89,243.37ZM268.46,230.71a26.59,26.59,0,0,1-53.17.11h0a26.59,26.59,0,0,1,53.17-.33Z" transform="translate(-135.58 -172.26)"/></svg>